<?xml version="1.0" standalone="no"?>
<!DOCTYPE svg PUBLIC "-//W3C//DTD SVG 20010904//EN"
 "http://www.w3.org/TR/2001/REC-SVG-20010904/DTD/svg10.dtd">
<svg version="1.0" xmlns="http://www.w3.org/2000/svg"
 width="80.000000pt" height="63.000000pt" viewBox="0 0 80.000000 63.000000"
 preserveAspectRatio="xMidYMid meet">

<g transform="translate(0.000000,63.000000) scale(0.100000,-0.100000)"
fill="#000000" stroke="none">
<path d="M353 528 c-23 -57 -66 -162 -96 -235 -34 -82 -49 -129 -41 -126 8 3
24 27 35 53 20 45 22 47 38 32 10 -10 26 -22 37 -28 18 -11 17 -13 -8 -23 -25
-9 -28 -15 -28 -60 0 -26 -7 -65 -15 -85 l-15 -36 55 0 c30 0 55 5 55 10 0 6
-8 10 -18 10 -11 0 -27 9 -37 20 -17 19 -17 22 5 80 l22 60 103 0 102 0 23
-52 c12 -29 24 -58 26 -64 8 -17 -24 -44 -52 -44 -13 0 -24 -4 -24 -10 0 -6
53 -10 140 -10 87 0 140 4 140 10 0 6 -9 10 -20 10 -28 0 -37 18 -140 270 -51
124 -101 246 -112 273 l-20 47 -58 0 -57 0 -40 -102z m177 -290 c0 -4 -38 -8
-85 -8 -47 0 -85 3 -85 8 0 4 15 45 33 92 18 47 37 94 41 105 6 16 17 -2 52
-85 24 -57 44 -108 44 -112z"/>
<path d="M16 151 c-11 -18 6 -41 30 -41 19 0 24 -5 24 -24 0 -14 -4 -28 -10
-31 -20 -12 -10 -26 10 -15 17 9 24 7 39 -11 l18 -22 -1 24 c-1 18 5 25 22 27
16 3 22 -2 22 -17 0 -11 5 -23 12 -27 7 -4 8 -3 4 4 -13 21 5 35 23 18 16 -15
17 -14 13 14 -4 26 -1 30 18 30 15 0 20 5 18 17 -3 14 -19 17 -108 20 -120 4
-134 7 -126 28 6 16 0 20 -8 6z"/>
</g>
</svg>
